HIERARCHY
ROOT Junyuan_V1:Solving:Hips
{
	OFFSET 0.000000 0.000000 0.000000
	CHANNELS 6 Xposition Yposition Zposition Xrotation Yrotation Zrotation
	JOINT Junyuan_V1:Solving:Spine
	{
		OFFSET 0.000000 -8.943189 2.778120
		CHANNELS 6 Xposition Yposition Zposition Xrotation Yrotation Zrotation
		JOINT Junyuan_V1:Solving:Spine1
		{
			OFFSET 0.000000 -9.944814 1.753542
			CHANNELS 6 Xposition Yposition Zposition Xrotation Yrotation Zrotation
			JOINT Junyuan_V1:Solving:Spine2
			{
				OFFSET 0.000000 -10.059801 0.880121
				CHANNELS 6 Xposition Yposition Zposition Xrotation Yrotation Zrotation
				JOINT Junyuan_V1:Solving:Spine3
				{
					OFFSET 0.000000 -10.098228 0.000000
					CHANNELS 6 Xposition Yposition Zposition Xrotation Yrotation Zrotation
					JOINT Junyuan_V1:Solving:Neck
					{
						OFFSET 0.000000 -12.983437 -1.298342
						CHANNELS 6 Xposition Yposition Zposition Xrotation Yrotation Zrotation
						JOINT Junyuan_V1:Solving:Neck1
						{
							OFFSET 0.000000 -8.085114 -0.707354
							CHANNELS 6 Xposition Yposition Zposition Xrotation Yrotation Zrotation
							JOINT Junyuan_V1:Solving:Head
							{
								OFFSET 0.000000 -7.992695 -1.409326
								CHANNELS 6 Xposition Yposition Zposition Xrotation Yrotation Zrotation
								JOINT Junyuan_V1:Solving:HeadEnd
								{
									OFFSET 0.000000 -9.728081 0.000002
									CHANNELS 6 Xposition Yposition Zposition Xrotation Yrotation Zrotation
									End Site
									{
										OFFSET 0.000000 -9.728081 0.000002
									}
								}
							}
						}
					}
					JOINT Junyuan_V1:Solving:RightShoulder
					{
						OFFSET 0.000000 -9.273884 -6.154356
						CHANNELS 6 Xposition Yposition Zposition Xrotation Yrotation Zrotation
						JOINT Junyuan_V1:Solving:RightArm
						{
							OFFSET -19.110832 -0.000008 0.000000
							CHANNELS 6 Xposition Yposition Zposition Xrotation Yrotation Zrotation
							JOINT Junyuan_V1:Solving:RightForeArm
							{
								OFFSET -27.916382 -0.000008 0.000000
								CHANNELS 6 Xposition Yposition Zposition Xrotation Yrotation Zrotation
								JOINT Junyuan_V1:Solving:RightHand
								{
									OFFSET -21.757072 -0.000008 0.000000
									CHANNELS 6 Xposition Yposition Zposition Xrotation Yrotation Zrotation
									JOINT Junyuan_V1:Solving:RightHandThumb1
									{
										OFFSET -3.656471 2.766285 -2.718907
										CHANNELS 6 Xposition Yposition Zposition Xrotation Yrotation Zrotation
										End Site
										{
											OFFSET -5.307442 0.000000 -5.356520
										}
									}
									JOINT Junyuan_V1:Solving:RightHandMiddle1
									{
										OFFSET -9.750572 -0.000004 0.062504
										CHANNELS 6 Xposition Yposition Zposition Xrotation Yrotation Zrotation
										End Site
										{
											OFFSET -7.540642 -0.000004 0.000000
										}
									}
								}
							}
						}
					}
					JOINT Junyuan_V1:Solving:LeftShoulder
					{
						OFFSET 0.000000 -9.273884 -6.154356
						CHANNELS 6 Xposition Yposition Zposition Xrotation Yrotation Zrotation
						JOINT Junyuan_V1:Solving:LeftArm
						{
							OFFSET 19.110832 -0.000008 0.000000
							CHANNELS 6 Xposition Yposition Zposition Xrotation Yrotation Zrotation
							JOINT Junyuan_V1:Solving:LeftForeArm
							{
								OFFSET 27.916382 -0.000008 0.000000
								CHANNELS 6 Xposition Yposition Zposition Xrotation Yrotation Zrotation
								JOINT Junyuan_V1:Solving:LeftHand
								{
									OFFSET 21.757072 -0.000008 0.000000
									CHANNELS 6 Xposition Yposition Zposition Xrotation Yrotation Zrotation
									JOINT Junyuan_V1:Solving:LeftHandThumb1
									{
										OFFSET 3.656471 2.766285 -2.718907
										CHANNELS 6 Xposition Yposition Zposition Xrotation Yrotation Zrotation
										End Site
										{
											OFFSET 5.307442 0.000000 -5.356520
										}
									}
									JOINT Junyuan_V1:Solving:LeftHandMiddle1
									{
										OFFSET 9.750572 -0.000004 0.062504
										CHANNELS 6 Xposition Yposition Zposition Xrotation Yrotation Zrotation
										End Site
										{
											OFFSET 7.540642 -0.000004 0.000000
										}
									}
								}
							}
						}
					}
				}
			}
		}
	}
	JOINT Junyuan_V1:Solving:RightUpLeg
	{
		OFFSET -8.521003 0.000000 0.000000
		CHANNELS 6 Xposition Yposition Zposition Xrotation Yrotation Zrotation
		JOINT Junyuan_V1:Solving:RightLeg
		{
			OFFSET 0.000000 41.622898 -0.000006
			CHANNELS 6 Xposition Yposition Zposition Xrotation Yrotation Zrotation
			JOINT Junyuan_V1:Solving:RightFoot
			{
				OFFSET 0.000000 37.258389 -0.000006
				CHANNELS 6 Xposition Yposition Zposition Xrotation Yrotation Zrotation
				JOINT Junyuan_V1:Solving:RightForeFoot
				{
					OFFSET 0.000000 3.234154 -0.000000
					CHANNELS 6 Xposition Yposition Zposition Xrotation Yrotation Zrotation
					JOINT Junyuan_V1:Solving:RightToeBase
					{
						OFFSET 0.000000 0.000000 -12.665958
						CHANNELS 6 Xposition Yposition Zposition Xrotation Yrotation Zrotation
						JOINT Junyuan_V1:Solving:RightToeBaseEnd
						{
							OFFSET 0.000000 0.000000 -2.833065
							CHANNELS 6 Xposition Yposition Zposition Xrotation Yrotation Zrotation
							End Site
							{
								OFFSET 0.000000 -2.833061 0.000002
							}
						}
					}
				}
			}
		}
	}
	JOINT Junyuan_V1:Solving:LeftUpLeg
	{
		OFFSET 8.521003 0.000000 0.000000
		CHANNELS 6 Xposition Yposition Zposition Xrotation Yrotation Zrotation
		JOINT Junyuan_V1:Solving:LeftLeg
		{
			OFFSET 0.000000 41.622898 -0.000006
			CHANNELS 6 Xposition Yposition Zposition Xrotation Yrotation Zrotation
			JOINT Junyuan_V1:Solving:LeftFoot
			{
				OFFSET 0.000000 37.258389 -0.000006
				CHANNELS 6 Xposition Yposition Zposition Xrotation Yrotation Zrotation
				JOINT Junyuan_V1:Solving:LeftForeFoot
				{
					OFFSET 0.000000 3.234154 -0.000000
					CHANNELS 6 Xposition Yposition Zposition Xrotation Yrotation Zrotation
					JOINT Junyuan_V1:Solving:LeftToeBase
					{
						OFFSET 0.000000 0.000000 -12.665958
						CHANNELS 6 Xposition Yposition Zposition Xrotation Yrotation Zrotation
						JOINT Junyuan_V1:Solving:LeftToeBaseEnd
						{
							OFFSET 0.000000 0.000000 -4.326123
							CHANNELS 6 Xposition Yposition Zposition Xrotation Yrotation Zrotation
							End Site
							{
								OFFSET 0.000000 -4.326126 0.000000
							}
						}
					}
				}
			}
		}
	}
}
MOTION
Frames: 4
Frame Time: 0.041667
-12.326834 61.946495 -82.476456 67.059610 174.384893 13.252321 0.000003 -8.943188 2.778117 29.554334 -0.101982 -1.971878 -0.000001 -9.944813 1.753561 5.043354 -0.059640 -0.371993 0.000004 -10.059796 0.880099 -1.163595 -2.252590 -1.862320 0.000002 -10.098235 -0.000001 -6.038839 -0.868136 -2.604256 -0.000003 -12.983424 -1.298359 -1.283408 -0.430294 5.094453 0.000000 -8.085115 -0.707361 -11.760127 0.157772 -2.406837 -0.000001 -7.992704 -1.409340 -9.596587 0.905345 -2.173704 -0.000000 -9.728073 -0.000013 0.000004 -0.000000 -0.000000 -0.000009 -9.273891 -6.154384 0.000004 4.863899 16.562029 -19.110815 -0.000026 -0.000008 -53.845926 4.354021 -95.859096 -27.916397 0.000001 -0.000005 -16.384430 -19.438486 -5.588515 -21.757067 -0.000011 -0.000005 -0.185716 -2.015134 -5.266522 -3.656468 2.766278 -2.718908 0.000002 0.000012 -0.000004 -9.750571 -0.000001 0.062500 0.000000 0.000007 0.000001 -0.000001 -9.273888 -6.154382 0.000000 -2.402966 -16.806433 19.110821 -0.000009 0.000005 -58.144813 15.110004 90.957834 27.916361 -0.000015 -0.000006 -23.167778 10.406793 4.420193 21.757103 -0.000017 -0.000003 -0.062210 -0.834836 -4.261647 3.656492 2.766289 -2.718906 0.000002 -0.000010 0.000007 9.750587 0.000008 0.062504 0.000002 0.000003 -0.000000 -8.521002 -0.000012 0.000004 -48.705710 16.427208 10.560578 0.000001 41.622883 -0.000010 33.988855 -0.000001 0.000003 0.000002 37.258408 0.000006 4.235509 1.507719 2.163289 0.000001 3.234138 0.000001 0.000001 -0.000000 0.000000 0.000002 0.000008 -12.665950 -1.360016 0.000003 0.000000 0.000002 -0.000008 -2.833065 0.000000 -0.000001 0.000001 8.521008 0.000009 0.000001 -53.542642 -0.504793 -21.989729 0.000000 41.622902 -0.000019 34.177826 0.000003 0.000004 0.000000 37.258423 -0.000006 0.394465 11.868035 17.978479 -0.000015 3.234146 0.000000 -0.000000 0.000000 -0.000000 -0.000000 -0.000013 -12.665967 7.493795 -0.000002 -0.000004 0.000006 -0.000000 -4.326131 -0.000000 -0.000003 0.000000 
-12.645164 61.869270 -82.606552 67.448678 174.315566 13.356651 0.000000 -8.943187 2.778093 29.672804 -0.159900 -2.094689 0.000001 -9.944809 1.753529 5.117626 -0.054567 -0.421545 -0.000002 -10.059797 0.880095 -1.082009 -2.266604 -1.881769 -0.000003 -10.098227 -0.000003 -6.098617 -0.852910 -2.591456 0.000003 -12.983432 -1.298355 -1.240951 -0.437832 5.128115 -0.000004 -8.085123 -0.707342 -11.760402 0.173297 -2.407397 0.000005 -7.992692 -1.409339 -9.566059 0.905400 -2.170539 0.000002 -9.728065 -0.000002 0.000000 0.000000 0.000000 0.000003 -9.273888 -6.154360 -0.000004 4.917033 16.548684 -19.110811 -0.000023 0.000015 -53.763551 4.310041 -95.922234 -27.916391 -0.000002 -0.000005 -16.245274 -19.457293 -5.543828 -21.757072 -0.000011 0.000005 -0.215461 -2.315352 -5.317975 -3.656449 2.766283 -2.718910 0.000002 -0.000005 -0.000001 -9.750579 0.000006 0.062507 0.000001 -0.000002 0.000001 0.000009 -9.273903 -6.154356 -0.000008 -2.315190 -16.665030 19.110826 -0.000022 0.000009 -58.131706 15.198658 90.770059 27.916380 -0.000011 -0.000008 -24.284109 10.023100 4.490012 21.757063 -0.000009 -0.000001 -0.001300 -0.020523 -3.619890 3.656460 2.766282 -2.718905 -0.000003 0.000005 0.000005 9.750564 -0.000005 0.062507 -0.000001 0.000008 -0.000001 -8.521003 -0.000004 -0.000019 -48.376403 17.179924 10.093025 0.000000 41.622910 -0.000007 34.571692 0.000000 0.000001 -0.000004 37.258389 0.000001 3.282147 2.455986 2.043112 -0.000001 3.234138 0.000006 0.000002 0.000002 0.000001 -0.000002 -0.000003 -12.665956 -1.501887 0.000000 -0.000000 -0.000001 -0.000008 -2.833067 -0.000001 -0.000000 0.000000 8.521005 0.000000 -0.000012 -52.938802 -0.536626 -21.892469 -0.000003 41.622887 -0.000004 33.980273 -0.000000 0.000004 -0.000002 37.258400 -0.000010 0.296737 11.805570 17.929393 -0.000005 3.234146 0.000000 -0.000000 0.000000 -0.000000 -0.000002 -0.000012 -12.665949 7.629402 0.000001 0.000002 0.000008 -0.000000 -4.326118 -0.000000 -0.000001 0.000001 
-12.948440 61.839806 -82.722641 67.640572 174.336112 13.402231 -0.000002 -8.943185 2.778118 29.679812 -0.186705 -2.155677 0.000002 -9.944808 1.753558 5.105487 -0.056449 -0.434552 -0.000000 -10.059807 0.880106 -1.066239 -2.288603 -1.899276 0.000001 -10.098230 -0.000017 -6.111151 -0.866348 -2.579334 -0.000002 -12.983432 -1.298348 -1.247902 -0.426198 5.123431 0.000003 -8.085117 -0.707355 -11.699428 0.186204 -2.388153 -0.000000 -7.992717 -1.409326 -9.515617 0.900548 -2.158844 -0.000002 -9.728058 -0.000002 0.000004 -0.000000 0.000000 -0.000004 -9.273884 -6.154360 -0.000004 4.925941 16.513680 -19.110807 -0.000007 0.000015 -53.678508 4.320393 -95.944938 -27.916393 0.000002 0.000003 -15.768354 -19.464781 -5.375419 -21.757074 -0.000001 0.000001 -0.217396 -2.351710 -5.283029 -3.656476 2.766284 -2.718904 0.000001 0.000007 -0.000005 -9.750565 0.000003 0.062502 -0.000001 0.000005 -0.000000 0.000000 -9.273880 -6.154362 0.000004 -2.212366 -16.582615 19.110838 -0.000003 0.000015 -58.105806 15.225895 90.597104 27.916378 -0.000006 -0.000004 -25.261904 9.701082 4.546379 21.757057 -0.000023 -0.000002 0.044474 0.837923 -3.038334 3.656461 2.766285 -2.718911 -0.000003 -0.000009 0.000006 9.750570 0.000010 0.062502 0.000002 -0.000007 -0.000002 -8.521002 0.000010 -0.000009 -48.333379 17.871432 9.641778 0.000001 41.622883 -0.000010 35.203994 0.000000 0.000001 0.000001 37.258400 -0.000002 2.392375 3.528878 2.181228 -0.000003 3.234138 0.000007 0.000003 0.000001 0.000001 0.000001 -0.000002 -12.665957 -2.610974 -0.000003 -0.000000 -0.000005 -0.000008 -2.833065 0.000000 0.000001 0.000001 8.521003 -0.000011 -0.000009 -52.549887 -0.579967 -21.766684 -0.000001 41.622898 -0.000004 33.774548 0.000002 0.000002 -0.000003 37.258389 -0.000018 0.266268 11.705278 17.875768 0.000001 3.234146 0.000001 -0.000001 -0.000000 -0.000002 -0.000001 -0.000014 -12.665956 7.671914 -0.000002 -0.000001 0.000003 -0.000007 -4.326127 0.000001 0.000001 -0.000000 
-13.236794 61.815674 -82.839584 67.811293 174.332382 13.547644 -0.000004 -8.943193 2.778091 29.671069 -0.310770 -2.348632 0.000001 -9.944800 1.753560 5.104591 -0.045305 -0.478059 -0.000002 -10.059788 0.880102 -1.036171 -2.239583 -1.897983 -0.000000 -10.098235 -0.000009 -6.123993 -0.827449 -2.466970 -0.000003 -12.983464 -1.298324 -1.243957 -0.488474 5.041757 -0.000002 -8.085118 -0.707358 -11.662458 0.207840 -2.365366 0.000007 -7.992681 -1.409327 -9.481570 0.893694 -2.141482 0.000000 -9.728065 -0.000008 0.000006 0.000001 -0.000001 -0.000004 -9.273903 -6.154358 -0.000000 4.839788 16.413568 -19.110817 -0.000026 0.000010 -53.603116 4.309246 -95.963625 -27.916382 -0.000001 -0.000005 -15.912435 -19.450236 -5.422964 -21.757063 -0.000010 0.000001 -0.208279 -2.234107 -5.327548 -3.656466 2.766287 -2.718907 -0.000001 -0.000000 -0.000003 -9.750571 0.000003 0.062504 0.000000 -0.000001 0.000002 0.000001 -9.273918 -6.154346 0.000000 -2.169165 -16.571246 19.110821 -0.000028 0.000011 -58.067126 15.260497 90.405142 27.916372 0.000001 -0.000009 -26.453449 9.406227 4.649004 21.757065 -0.000033 0.000004 0.073500 1.759663 -2.392205 3.656445 2.766276 -2.718920 0.000000 -0.000007 0.000005 9.750554 -0.000011 0.062494 0.000003 -0.000003 -0.000003 -8.521006 -0.000009 -0.000021 -48.339472 18.638364 9.156517 0.000004 41.622890 -0.000003 35.915843 0.000003 0.000002 0.000002 37.258389 -0.000016 2.137640 4.326614 2.976548 0.000001 3.234146 -0.000000 -0.000000 -0.000001 -0.000001 -0.000003 -0.000008 -12.665963 -4.294178 0.000001 -0.000003 -0.000000 -0.000008 -2.833061 -0.000001 0.000002 0.000001 8.521004 -0.000004 -0.000023 -52.205188 -0.496731 -21.681462 -0.000005 41.622906 -0.000007 33.614602 -0.000000 0.000002 0.000020 37.258385 -0.000002 0.285670 11.603879 17.817237 0.000003 3.234139 0.000010 -0.000000 -0.000000 0.000000 0.000002 -0.000004 -12.665944 7.711623 -0.000002 0.000001 -0.000000 -0.000008 -4.326128 -0.000002 -0.000001 0.000000 
